<svg xmlns="http://www.w3.org/2000/svg" viewBox="0 0 257 56" width="257" height="56" role="img" aria-label="0G Arena">
  <title>0G Arena</title>
  <defs><linearGradient id="arenaTile" x1="6" y1="6" x2="90" y2="90" gradientUnits="userSpaceOnUse"><stop stop-color="#C4B5FD"/><stop offset="1" stop-color="#8B5CF6"/></linearGradient><linearGradient id="zgText" x1="0" y1="0" x2="54" y2="28" gradientUnits="userSpaceOnUse"><stop stop-color="#C4B5FD"/><stop offset="1" stop-color="#8B5CF6"/></linearGradient></defs>
  <g transform="translate(0 6) scale(0.4583)"><rect x="0" y="0" width="96" height="96" rx="27" fill="url(#arenaTile)"/><g stroke="#09090C" stroke-linecap="round" fill="none"><path d="M18 60H78" stroke-width="7"/><path d="M34 60V28" stroke-width="7"/><path d="M62 60V28" stroke-width="7"/><path d="M18 50L34 28Q48 46 62 28L78 50" stroke-width="6"/></g></g>
  <g transform="translate(60 14)"><path d="M12.96 28.56Q8.00 28.56 5.00 25.82Q2.00 23.08 2.00 17.52V10.48Q2.00 5.08 5.00 2.26Q8.00 -0.56 12.96 -0.56Q17.96 -0.56 20.94 2.26Q23.92 5.08 23.92 10.48V17.52Q23.92 23.08 20.94 25.82Q17.96 28.56 12.96 28.56ZM12.96 24.00Q15.96 24.00 17.38 22.36Q18.80 20.72 18.80 17.68V10.24Q18.80 7.16 17.22 5.58Q15.64 4.00 12.96 4.00Q10.20 4.00 8.66 5.64Q7.12 7.28 7.12 10.24V17.68Q7.12 20.84 8.58 22.42Q10.04 24.00 12.96 24.00ZM39.84 28.56Q36.96 28.56 34.62 27.26Q32.28 25.96 30.90 23.46Q29.52 20.96 29.52 17.36V10.64Q29.52 5.24 32.56 2.34Q35.60 -0.56 40.80 -0.56Q45.96 -0.56 48.78 2.18Q51.60 4.92 51.60 9.60V9.76H46.40V9.44Q46.40 7.96 45.78 6.76Q45.16 5.56 43.92 4.86Q42.68 4.16 40.80 4.16Q38.00 4.16 36.40 5.88Q34.80 7.60 34.80 10.56V17.44Q34.80 20.36 36.40 22.14Q38.00 23.92 40.88 23.92Q43.76 23.92 45.08 22.40Q46.40 20.88 46.40 18.56V18.16H39.76V13.68H51.60V28.00H46.72V25.32H46.00Q45.72 26.00 45.10 26.76Q44.48 27.52 43.24 28.04Q42.00 28.56 39.84 28.56Z" fill="url(#zgText)"/><path d="M66.48 28.00 73.84 0.00H83.04L90.40 28.00H84.96L83.44 21.84H73.44L71.92 28.00ZM74.68 16.96H82.20L78.80 3.32H78.08ZM95.36 28.00V0.00H107.52Q110.16 0.00 112.12 0.92Q114.08 1.84 115.16 3.52Q116.24 5.20 116.24 7.48V7.96Q116.24 10.48 115.04 12.04Q113.84 13.60 112.08 14.32V15.04Q113.68 15.12 114.56 16.14Q115.44 17.16 115.44 18.84V28.00H110.16V19.60Q110.16 18.64 109.66 18.04Q109.16 17.44 108.00 17.44H100.64V28.00ZM100.64 12.64H106.96Q108.84 12.64 109.90 11.62Q110.96 10.60 110.96 8.92V8.52Q110.96 6.84 109.92 5.82Q108.88 4.80 106.96 4.80H100.64ZM122.24 28.00V0.00H140.24V4.80H127.52V11.48H139.12V16.28H127.52V23.20H140.48V28.00ZM146.00 28.00V0.00H156.04L161.60 24.40H162.32V0.00H167.52V28.00H157.48L151.92 3.60H151.20V28.00ZM172.48 28.00 179.84 0.00H189.04L196.40 28.00H190.96L189.44 21.84H179.44L177.92 28.00ZM180.68 16.96H188.20L184.80 3.32H184.08Z" fill="#F2EFFA"/></g>
</svg>
